<svg xmlns="http://www.w3.org/2000/svg" height="149.1mm" width="532.951" viewBox="0 0 499.6369 528.30327"><g transform="translate(-76.875 -214.04)"><path d="M390.42 341.7l-103.98 64.697-93.661-78.896 46.092-113.46 122.15 8.776zm-107.71 81.234l-40.534 115.564-122.429-2.837-35.133-117.312 100.717-69.668zM76.873 668.88l39.603-115.888 122.448 1.851 36.077 117.026-100.152 70.477z" fill="#df5"/><path fill="#4dbce9" d="M480.55 604.15c260.43-288.74-323.87-413.46-204.03-43.55 119.84 369.9 520-73.75 139.74-154.92-380.27-81.17-196.13 487.2 64.29 198.47z"/><rect ry="48.712" height="109.99" width="97.424" y="398.68" x="440.83" fill="#d5e5ff"/><path fill-rule="evenodd" fill="#d5e5ff" d="M449.72 553.89l-3.889 42.778 32.778-21.111-.555 42.778 40-18.889-6.112 38.333 56.667-42.778z"/><path d="M450.6 553.42l5.893 21.999 26.713-10.607 3.535 36.141 40.07-20.82 9.034 24.749 32.605-10.607z" fill-rule="evenodd" fill="#4dbce9"/></g></svg>